<svg id="photo-camera-interface-symbol-for-button" xmlns="http://www.w3.org/2000/svg" width="15.787" height="18.463" viewBox="0 0 15.787 18.463">
  <g id="reload" transform="translate(0 0)">
    <path id="Path_21450" data-name="Path 21450" d="M40.578,18.412a8.009,8.009,0,0,0,6.972-7.079,8.034,8.034,0,0,0-7.792-9.018V.142a.153.153,0,0,0-.248-.109l-4.4,3.285a.139.139,0,0,0,0,.223l4.4,3.285a.154.154,0,0,0,.248-.109V4.548a5.846,5.846,0,1,1-5.768,6.781,1.093,1.093,0,1,0-2.161.336A7.973,7.973,0,0,0,40.578,18.412Z" transform="translate(-31.817 0)" fill="#b01c2b"/>
  </g>
</svg>
