<svg id="photo-camera-interface-symbol-for-button" xmlns="http://www.w3.org/2000/svg" width="19.767" height="17.678" viewBox="0 0 19.767 17.678">
  <path id="Path_21449" data-name="Path 21449" d="M13.072,13.664a3.36,3.36,0,0,1-3.188,3.5,3.359,3.359,0,0,1-3.187-3.5,3.359,3.359,0,0,1,3.187-3.5A3.36,3.36,0,0,1,13.072,13.664Zm6.7-4.972v9.945a2.3,2.3,0,0,1-2.186,2.4H2.186A2.3,2.3,0,0,1,0,18.638V8.692a2.3,2.3,0,0,1,2.186-2.4H4.874V5.461a2.013,2.013,0,0,1,1.913-2.1H12.98a2.013,2.013,0,0,1,1.913,2.1v.83h2.689A2.3,2.3,0,0,1,19.767,8.692Zm-5.056,4.972a5.087,5.087,0,0,0-4.827-5.3,5.087,5.087,0,0,0-4.827,5.3,5.087,5.087,0,0,0,4.827,5.3A5.087,5.087,0,0,0,14.711,13.664Z" transform="translate(0 -3.36)" fill="#fff"/>
</svg>
