<svg xmlns="http://www.w3.org/2000/svg" xmlns:xlink="http://www.w3.org/1999/xlink" width="540" height="505" viewBox="0 0 540 505">
  <defs>
    <clipPath id="clip-path">
      <rect id="Rectangle_4861" data-name="Rectangle 4861" width="540" height="505" transform="translate(-10.263 -30.061)" fill="#fff" stroke="#707070" stroke-width="1"/>
    </clipPath>
  </defs>
  <g id="Mask_Group_18" data-name="Mask Group 18" transform="translate(10.263 30.061)" clip-path="url(#clip-path)">
    <path id="man" d="M554.139,540.147,540.277,484.7a80.515,80.515,0,0,0-52.792-57.274l-101.657-33.87c-24.791-10.327-36.134-50.251-38.584-65.407,18.889-15.708,30.72-46.55,33.638-70.943-.417-4.166,8.85-5.26,11.079-8.805,3.6-.9,13.653-7.438,15.026-10.887,6.652-16.106,7.973-28.508,9.53-45.863,0-.943-2.334-11.244-2.567-12.157-1.655-6.744-7.647-4-13.233-8.12l-7.96-55.848C392.757,78.3,382.973-2.815,277.24,0,197.57.317,164.247,52.8,161.721,115.523L155.6,171.37c-5.586,4.125-15.257,1.376-16.912,8.12-.234.913,0,15.31,0,16.252,1.555,17.364,2.426,29.611,9.08,45.725,1,3.265,11.457,5.777,14.763,6.631,1.294.647,10.884,5.965,10.884,14.144,2.936,24.463,14.947,50.319,33.934,66.023-2.426,15.133-13.7,55.033-37.8,65.106L67,427.425a80.516,80.516,0,0,0-52.769,57.228L.365,540.1A11.553,11.553,0,0,0,11.547,554.5H542.934a11.55,11.55,0,0,0,11.2-14.35Z" transform="translate(-17.509 -17.609)" fill="none" stroke="#fff" stroke-width="3" stroke-dasharray="10 8"/>
  </g>
</svg>
